<svg width="42" height="29" viewBox="0 0 42 29" fill="none" xmlns="http://www.w3.org/2000/svg">
<path d="M42 0H0V24L21 29L42 24V0Z" fill="#77A43E"/>
<path d="M9.86967 17L13.1847 12.372L9.99967 7.9H11.8847L14.1467 11.163L16.4217 7.9H18.2547L15.0827 12.346L18.3847 17H16.4997L14.1077 13.555L11.7027 17H9.86967ZM19.8474 17V10.136H21.3814V14.738C22.82 12.6927 23.9034 11.1587 24.6314 10.136H26.1134V17H24.5924V12.424L21.3294 17H19.8474ZM29.5556 17V11.488H27.3456V10.136H33.3516V11.488H31.1416V17H29.5556Z" fill="white"/>
</svg>
